<?xml version="1.0" encoding="UTF-8"?>
<svg id="Capa_2" data-name="Capa 2" xmlns="http://www.w3.org/2000/svg" viewBox="0 0 104.16 100">
  <defs>
    <style>
      .cls-1 {
        fill: #1b1b1b;
      }

      .cls-1, .cls-2 {
        stroke-width: 0px;
      }

      .cls-3 {
        letter-spacing: -.02em;
      }

      .cls-4 {
        font-family: GlossySheen-Shine, 'Glossy Sheen';
        font-size: 9px;
      }
    </style>
  </defs>
  <g id="OBJECTS">
    <g>
      <path class="cls-2" d="m28.73,86.83c-.17-.41-.42-.8-.83-1.06-.16-.1-.18-.2-.15-.37.36-2.11.73-4.22,1.07-6.33.1-.59.12-1.2.16-1.8.02-.27.09-.47.36-.58.3-.11.58-.24.88-.42h-1.12c0-.46,0-.91,0-1.36.07-3.27-.13-6.53-.63-9.77-.02-.13.02-.3.09-.42.19-.35.41-.68.57-1.07-.27.16-.54.31-.84.49-.52-2.74-1.21-5.4-2.12-8.01-.48.82-.94,1.62-1.41,2.43l-.09-.02v-1.53s-.06,0-.08,0c-.16,1.12-.57,2.15-1.08,3.15-.13-.48-.25-.95-.38-1.41-.03,0-.06,0-.1.01.01,1.03.03,2.06-.61,2.99-.07-.4-.13-.76-.19-1.12-.1,2.21-1.43,3.68-2.97,5.13-.09-1.14-.02-2.18.22-3.21.56-2.4,1.76-4.48,3.29-6.38.47-.59.99-1.15,1.47-1.71-.78.32-1.58.65-2.37.98,0-.02-.02-.04-.02-.06.29-.41.58-.82.85-1.2-.92.62-1.85,1.24-2.78,1.86-.01-.02-.03-.05-.04-.07.19-.46.38-.91.58-1.37-.03-.01-.05-.03-.08-.04-.63.82-1.22,1.68-2.29,2.01.18-.34.34-.66.51-.98-1.42,1.69-3.36,2.06-5.44,2.29.58-.93,1.23-1.67,1.99-2.33,1.95-1.68,4.25-2.63,6.72-3.24.69-.17,1.38-.3,2.16-.47-1.06-.41-2.07-.79-3.07-1.17,0-.02,0-.03,0-.05.44-.06.87-.12,1.31-.19,0-.02,0-.04,0-.06-1.3-.08-2.61-.16-3.91-.24,0-.02-.02-.04-.02-.06.44-.25.87-.51,1.31-.76,0-.02-.01-.03-.02-.05-1.14.28-2.28.55-3.42.83-.02-.02-.03-.04-.05-.05.28-.34.56-.67.88-1.05-1.88.79-3.71,1.56-5.6,2.35.01-.14,0-.17.02-.19,1.3-1.5,2.8-2.71,4.7-3.38,1.8-.63,3.56-.53,5.27.32,1.45.72,2.74,1.67,4.03,2.63.07.05.13.1.25.12-.73-1.55-1.46-3.1-2.19-4.65.01-.02.02-.03.03-.05.42.27.84.54,1.3.84-1.02-1.05-1.99-2.06-3.01-3.1.68.15,1.31.3,1.94.44,0-.02.01-.03.02-.05-1.22-.63-2.44-1.26-3.66-1.89,0-.02,0-.05,0-.07.55-.04,1.11-.07,1.66-.11-2.24-.81-4.52-1.49-6.71-2.41,0-.04,0-.07.01-.11.36,0,.71,0,1.07,0,2.13-.02,4.22.23,6.2,1.04,1.65.67,3,1.7,3.77,3.36.47,1.01.66,2.09.82,3.18.08.57.15,1.15.21,1.65.34-.41.66-.89,1.08-1.27.98-.88,2.21-1.23,3.47-1.47,1.78-.34,3.58-.32,5.38-.19.09,0,.18.04.28.13-1.93.33-3.85.65-5.78.98,0,.01,0,.02,0,.04.47.05.95.09,1.42.14,0,.02,0,.03,0,.05-.99.22-1.99.45-3.06.69h1.81c-.92.5-1.79.99-2.66,1.47,0,.02.01.04.02.05.44-.16.89-.32,1.33-.48.01.01.02.03.04.04-.61.77-1.22,1.54-1.88,2.39.16-.07.24-.11.32-.15,1.38-.73,2.79-1.39,4.28-1.9,2.08-.72,4.03-.46,5.87.71,1.25.79,2.31,1.81,3.19,2.99.65.87,1.22,1.8,1.82,2.71.09.13.15.28.19.45-1.95-1.37-3.71-2.97-5.57-4.47l.76,1.47s-.03.04-.04.05c-1.17-.72-2.34-1.44-3.51-2.15l-.06.07c.48.43.95.86,1.43,1.29-.03.04-.06.08-.09.12-1.39-.35-2.79-.7-4.18-1.06l-.02.05c.47.23.94.46,1.41.69,0,.02,0,.04,0,.06-1.18.12-2.36.24-3.53.37,0,.01,0,.03,0,.04.45.07.9.12,1.34.2,2.18.37,4.27,1.01,6.16,2.21,1.08.68,2.15,1.66,2.78,2.56-2.09-.06-4.06-.24-5.62-1.84.19.31.39.62.57.92-.5.03-.95-.29-2.39-1.7-.03.01-.06.03-.08.04.22.43.45.85.67,1.27-1.03-.4-2.05-.89-2.93-1.63-.03.03-.05.05-.08.08.34.37.66.78,1.04,1.1.95.8,1.9,1.59,2.7,2.55,1.09,1.3,1.93,2.72,2.35,4.37.02.07.03.14.06.29-1.89-.89-3.61-1.87-4.4-3.94.05.36.09.71.13,1.05-.5-.2-.93-.92-1.49-2.56-.15.26-.13.81.08,1.55-.87-.86-1.61-1.74-2.12-2.79-.03.01-.05.02-.08.04.15.5.3.99.47,1.53-.3-.23-.58-.45-.93-.71.11.52.22.98.31,1.44.55,2.91,1.1,5.82,1.65,8.72.05.25-.02.36-.26.49-.39.2-.74.49-1.08.79.47-.18.92-.35,1.47-.26.65,5.27.76,10.54.09,15.91-.37-.7-.71-1.33-1.45-1.66.05.1.08.16.11.21.59.86.95,1.83,1.05,2.85.06.57-.14,1.17-.28,1.74-.39,1.59-.8,3.17-1.21,4.77.34.12.74.25,1.13.41,1.12.47,2.08,1.17,2.87,2.1.28.34.34.72.16,1.11-.16.35-.45.49-.84.48-2.07,0-4.14,0-6.21,0-1.57,0-3.15,0-4.72,0-.4,0-.73-.1-.9-.49-.19-.4-.13-.78.16-1.12,1.12-1.33,2.54-2.14,4.22-2.54.24-.06.34-.17.42-.37.7-1.67,1.18-3.42,1.61-5.17.07-.28.19-.4.45-.31.3.1.58.22.87.33Z"/>
      <path class="cls-2" d="m76.36,9.62v84.63c-.09,0-.18,0-.28,0-11.87,0-23.74,0-35.6,0-.1,0-.2.01-.31.01-.05,0-.1-.03-.14-.04,0-26.38,0-52.76,0-79.14.1-.17.19-.36.31-.5.39-.43.79-.83,1.18-1.24.46-.48.91-.97,1.37-1.44.44-.44.89-.84,1.33-1.27.91-.9,1.81-1.82,2.71-2.73.69-.69,1.38-1.38,2.07-2.07.42-.42.82-.87,1.24-1.29.44-.44.89-.87,1.33-1.31.28-.28.56-.59.84-.88.57-.58,1.2-1.06,1.67-1.78.12-.19.28-.38.5-.27.21.1.27.34.27.61,0,.4-.04.81-.04,1.21,0,2.5,0,4.99,0,7.49,0,9.27,0,18.54,0,27.8,0,8.42,0,16.85,0,25.27,0,7.13,0,14.26,0,21.39,0,1.12-.02,2.25,0,3.37,0,.34.05.69.13,1.02.1.39.34.53.75.51.31-.01.52-.19.6-.57.06-.29.09-.6.09-.91,0-.97,0-1.93,0-2.9,0-4.61,0-9.23,0-13.84,0-6.01,0-12.01,0-18.02,0-7.01,0-14.01,0-21.02,0-4.27,0-8.54,0-12.8,0-5.27,0-10.54,0-15.8,0-.84-.01-1.68,0-2.53,0-.23.04-.51.24-.56.16-.03.34.06.5.14.17.08.32.23.49.32.26.13.54.22.81.35.42.2.83.42,1.25.63.19.1.4.16.59.26.41.2.82.42,1.23.63.32.16.64.3.96.46.27.14.54.29.82.43.26.13.53.25.8.38.38.18.75.37,1.12.55.31.15.63.28.95.43.48.23.95.46,1.42.7.28.14.57.29.85.43.17.09.34.18.51.26.32.15.64.3.96.45.47.22.93.44,1.4.67.26.13.51.28.77.41.16.09.32.18.48.26.31.14.63.25.94.4.42.21.83.44,1.25.66.13.07.26.11.39.17.43.21.85.43,1.28.64Zm-21.92,44.52s-.03,0-.04,0c0-.95,0-1.89,0-2.84,0-.67-.48-1.08-.99-.9-.47.17-.94.33-1.42.45-.63.15-1.28.27-1.92.39-.46.08-.89.48-.9,1.17,0,.24-.03.48-.03.72,0,1.81,0,3.62,0,5.42,0,.1,0,.2.01.29.11.75.56,1.2,1.16.93.21-.09.42-.17.64-.21.83-.13,1.66-.24,2.49-.34.4-.05.73-.25.88-.74.09-.28.12-.61.13-.92.01-1.14,0-2.28,0-3.43Zm-5.3,16.83h-.02c0,.2,0,.39,0,.59,0,.35.12.62.33.84.25.26.52.25.81.22,1.03-.11,2.05-.25,3.08-.3.62-.03,1.07-.44,1.06-1.31,0-1,0-2,0-3,0-1.18,0-2.36-.02-3.54-.02-.74-.5-1.12-1.06-.93-.47.16-.95.27-1.43.35-.63.11-1.27.16-1.9.25-.36.05-.66.26-.79.72-.06.2-.07.43-.08.65,0,1.82,0,3.64,0,5.46Zm5.3-42.6h0c0-1.05,0-2.1,0-3.16,0-.77-.45-1.2-1.02-.97-.41.16-.81.38-1.23.54-.62.23-1.24.43-1.87.63-.31.1-.61.21-.83.51-.3.39-.33.91-.34,1.42-.01,1.08,0,2.16,0,3.23,0,.87-.01,1.74,0,2.61.02.84.65,1.17,1.04.91.42-.28.87-.44,1.32-.58.63-.2,1.27-.36,1.9-.57.64-.22,1.04-.69,1.03-1.49-.01-1.03,0-2.05,0-3.08Zm0,12.73s0,0,0,0c0-.95,0-1.91,0-2.86,0-.69-.48-1.07-.87-.96-.43.12-.85.31-1.28.47-.34.12-.67.27-1.01.36-.4.11-.82.15-1.22.27-.33.09-.64.31-.75.72-.11.38-.16.81-.16,1.22-.01,1.62,0,3.24,0,4.86,0,.42.06.84.12,1.26.01.11.08.23.15.3.24.23.53.22.81.15.38-.11.76-.25,1.14-.34.71-.17,1.43-.29,2.14-.47.19-.05.38-.18.54-.34.36-.36.39-.88.39-1.42,0-1.07,0-2.14,0-3.21Zm-5.3,40.19s0,0,0,0c0,1.06,0,2.12,0,3.17,0,.16.03.34.1.48.21.48.57.57.96.56.72-.03,1.45-.08,2.17-.11.44-.02.89,0,1.33-.03.42-.04.7-.45.71-.99,0-.33,0-.65,0-.98.02-1.8.02-3.59.05-5.39.01-.89-.37-1.4-1.01-1.32-1.1.12-2.2.24-3.31.33-.53.04-1.06.47-1.02,1.38.05.96.01,1.93.01,2.9Zm0-62.11s.02,0,.03,0c0,.42-.02.84,0,1.25.05.91.73,1.13,1.17.74.18-.16.38-.32.59-.4.88-.3,1.77-.57,2.63-.99.67-.33.89-.65.88-1.45-.02-1.16-.03-2.33-.03-3.49,0-.82.02-1.63.03-2.45,0-.25-.02-.49-.04-.74-.02-.17-.1-.25-.24-.25-.36,0-.72-.02-1.07.01-.21.02-.43.09-.64.18-.4.18-.79.41-1.2.58-.31.13-.64.19-.94.33-.25.11-.49.27-.7.47-.3.27-.47.67-.47,1.15-.01.68,0,1.37,0,2.05,0,.99,0,1.98,0,2.98Zm-3.46,37.25s-.01,0-.02,0c0-1.02,0-2.04,0-3.06,0-.75-.3-1.06-.88-.93-.43.1-.85.29-1.28.39-.61.15-1.23.26-1.84.38-.47.09-.9.47-.88,1.23.03,1.25,0,2.51,0,3.76,0,.74-.02,1.49-.02,2.23,0,.64.3.99.8.97.12,0,.23-.03.35-.06.65-.14,1.3-.27,1.95-.41.36-.08.73-.14,1.09-.25.51-.15.74-.56.74-1.23,0-1.01,0-2.01,0-3.02Zm0-25.04h0c0-1.03,0-2.05,0-3.08,0-.71-.31-1.05-.86-.9-.23.06-.46.15-.69.25-.23.1-.46.26-.69.35-.57.2-1.15.35-1.72.54-.68.22-.97.77-.96,1.66.02,1.08.02,2.17.03,3.25,0,.86,0,1.72.02,2.58.02.55.39.83.81.7.38-.13.77-.23,1.16-.35.42-.13.85-.28,1.27-.42.25-.09.5-.24.76-.28.53-.08.92-.59.89-1.35-.03-.98,0-1.96,0-2.94Zm0-12.51h0c0-.91.01-1.83,0-2.74,0-.29-.06-.59-.14-.87-.09-.32-.31-.45-.57-.36-.19.06-.38.14-.57.22-.43.18-.86.37-1.29.55-.49.21-.97.44-1.46.61-.3.1-.52.28-.69.59-.22.39-.19.85-.19,1.28,0,1.37.02,2.74.02,4.11,0,.48-.03.97,0,1.45.03.54.3.85.72.78.34-.06.67-.22,1.01-.35.51-.2,1.02-.42,1.53-.63.35-.14.7-.26,1.05-.4.09-.04.17-.12.24-.2.27-.36.36-.81.36-1.29,0-.91,0-1.83,0-2.74Zm-.02,50.16s.02,0,.02,0c0-.93-.01-1.87,0-2.8.01-.9-.3-1.29-.99-1.18-.41.07-.83.13-1.25.18-.58.07-1.16.11-1.74.17-.55.06-.87.45-.92,1.14-.03.45-.01.9-.01,1.35-.01,1.53-.02,3.07-.03,4.6,0,.78.37,1.21.98,1.11.21-.03.42-.08.64-.1.82-.08,1.64-.15,2.46-.24.13-.01.26-.06.38-.13.32-.2.45-.57.45-1,.01-1.04,0-2.08,0-3.11Zm.03,12.49s-.02,0-.03,0c0-.51,0-1.02,0-1.53,0-.53,0-1.06,0-1.59-.02-.65-.29-.97-.8-.94-.23.01-.47.05-.7.08-.81.09-1.61.21-2.42.25-.62.04-1.01.52-.98,1.32.01.25.03.51.04.76,0,.99,0,1.99,0,2.98,0,.72-.03,1.44,0,2.15.02.64.39,1,.89.96.68-.05,1.37-.07,2.05-.12.4-.03.79-.07,1.19-.13.14-.02.3-.1.42-.21.3-.29.37-.71.36-1.17,0-.94,0-1.88,0-2.82Zm-.01-37.64h-.02c0-.71,0-1.41,0-2.12,0-.32.03-.64,0-.96-.05-.69-.38-.97-.91-.8-.34.11-.68.21-1.03.31-.76.24-1.53.47-2.28.72-.48.16-.71.6-.7,1.23.02.61.02,1.21.03,1.82,0,1.4,0,2.8.02,4.19,0,.68.43,1.01.93.79.23-.1.45-.23.68-.28.81-.2,1.62-.37,2.42-.56.38-.09.66-.32.75-.82.06-.34.09-.7.1-1.04.01-.83,0-1.66,0-2.49Zm14.83,8.71s-.02,0-.03,0c0,1.04,0,2.09,0,3.13,0,.25.02.51.06.76.08.48.35.77.71.84.56.11,1.14.14,1.7.24.49.09.98.23,1.47.32.17.03.37.05.52-.02.35-.16.49-.56.5-1.01,0-.28-.04-.57-.04-.86,0-1.19.02-2.39.03-3.58,0-.48-.01-.97-.02-1.45,0-.65-.41-1.01-.85-1.09-.29-.05-.59-.08-.88-.16-.75-.19-1.5-.4-2.24-.62-.5-.15-.92.21-.93.86,0,.87,0,1.75,0,2.62Zm4.91-34.57s0,0,.01,0c0-.89-.03-1.78,0-2.66.03-.79-.35-1.38-.87-1.62-.38-.18-.78-.29-1.17-.44-.24-.09-.47-.2-.71-.31-.48-.22-.94-.48-1.43-.67-.4-.16-.72.1-.77.64-.03.38.01.78,0,1.17,0,1.67-.01,3.35-.03,5.02,0,.51.14.91.5,1.09.55.28,1.11.51,1.67.73.6.24,1.25.3,1.78.82.31.3.77.05.91-.42.05-.17.08-.37.08-.55,0-.93,0-1.86,0-2.78Zm-4.94,10.43s0,0,0,0c0,.97,0,1.93,0,2.9,0,.56.18,1,.57,1.19.58.28,1.18.49,1.78.65.55.15,1.09.3,1.6.6.15.09.36.07.53.02.37-.11.46-.51.46-.93,0-1.72.01-3.44,0-5.15,0-.39-.04-.78-.13-1.15-.05-.22-.2-.43-.34-.56-.19-.16-.42-.24-.63-.32-.57-.2-1.15-.37-1.71-.59-.4-.15-.8-.36-1.2-.52-.29-.12-.64,0-.78.33-.1.22-.12.51-.12.77-.01.92,0,1.84,0,2.76Zm.03,37.42s0,0,0,0c0,.91-.02,1.82,0,2.72.02.65.35,1.02.86,1.04.21,0,.42,0,.63.03.82.09,1.64.17,2.45.27.62.07,1-.37.99-1.16,0-.91,0-1.81-.01-2.72,0-.94,0-1.88,0-2.82,0-.77-.32-1.2-.92-1.26-.62-.06-1.24-.14-1.86-.24-.38-.06-.77-.17-1.14-.29-.55-.18-.99.17-1,.9-.02,1.18,0,2.36,0,3.55Zm4.88-23.92h.05c0-.85,0-1.7,0-2.55,0-.44-.06-.88-.34-1.2-.21-.24-.46-.37-.75-.41-.35-.06-.71-.12-1.05-.23-.63-.21-1.25-.47-1.87-.7-.51-.19-.94.24-.94.91,0,1.44.01,2.87.01,4.31,0,.51-.02,1.02-.02,1.53,0,.86.31,1.25.84,1.44.36.13.73.17,1.1.25.25.05.5.08.74.15.42.11.83.26,1.25.36.64.14.96-.04.98-.85.03-1,0-2,0-2.99Zm.05,36.12s0,0,0,0c0-.92,0-1.84,0-2.76,0-.79-.34-1.21-.95-1.26-1-.07-1.99-.16-2.99-.3-.72-.1-1.06.4-1.03,1.29.02.59.04,1.17.05,1.76,0,1.33,0,2.67,0,4,0,.23.05.49.14.68.17.34.46.42.76.42.9.01,1.81.04,2.71.06.17,0,.35.05.52.04.51-.04.8-.43.8-1.04,0-.96,0-1.92,0-2.88Zm3.27-23.31s-.01,0-.02,0c0,.97,0,1.93,0,2.9,0,.5.23.93.58,1.03.37.11.76.18,1.14.27.16.04.32.07.48.1.51.11,1.02.24,1.54.33.58.1.88-.28.87-1.02-.01-.78-.02-1.57-.02-2.35,0-1.08,0-2.16,0-3.23,0-.41-.13-.71-.42-.87-.16-.09-.33-.15-.51-.19-.63-.16-1.26-.3-1.89-.45-.33-.08-.65-.21-.99-.26-.5-.08-.75.2-.75.85-.01.97,0,1.93,0,2.9Zm-.01-23.48s0,0,0,0c0,.97,0,1.95,0,2.92,0,.41.13.74.42.91.28.16.58.26.88.38.22.09.43.2.65.27.64.19,1.28.37,1.93.55.22.06.41-.01.56-.25.17-.26.16-.57.16-.87,0-.46,0-.93,0-1.39,0-1.23.02-2.47.02-3.7,0-.69-.24-1.19-.72-1.39-.37-.15-.75-.26-1.12-.38-.31-.1-.63-.19-.93-.3-.35-.14-.68-.34-1.04-.45-.5-.15-.79.18-.79.83,0,.96,0,1.92,0,2.88Zm0-11.72s0,0,0,0c0,.86,0,1.72,0,2.59,0,.14,0,.28.03.41.08.39.17.79.5.95.3.15.6.28.91.38.54.17,1.07.36,1.58.63.29.16.61.27.92.32.36.06.6-.24.65-.7.01-.1.01-.21.01-.31,0-1.1,0-2.21-.01-3.31,0-.78,0-1.57-.03-2.35-.02-.48-.35-.89-.72-1-.36-.11-.72-.25-1.07-.4-.32-.14-.62-.32-.94-.46-.39-.17-.78-.32-1.17-.46-.22-.08-.44.04-.52.32-.08.27-.14.56-.14.85-.02.85,0,1.7,0,2.55Zm0,46.99s0,0,0,0c0,.74,0,1.48,0,2.21,0,.32,0,.64.05.96.06.44.29.73.61.79.27.05.55.08.82.11.71.07,1.42.14,2.14.21.15.01.3.04.44,0,.37-.09.55-.52.54-1.12-.01-1.54-.01-3.08-.02-4.62,0-.25,0-.5-.01-.74-.06-.78-.36-1.13-.97-1.19-.64-.07-1.29-.17-1.93-.24-.36-.04-.72-.08-1.08-.08-.3,0-.5.23-.57.6-.03.16-.03.32-.03.49,0,.87,0,1.75,0,2.62Zm.02,11.69s-.02,0-.03,0c0,.93,0,1.86,0,2.78,0,.56.27,1.17.86,1.2.97.05,1.95.14,2.92.2.17,0,.37-.06.52-.18.34-.26.33-.72.33-1.16,0-1.7,0-3.41,0-5.11,0-.73-.37-1.21-.94-1.19-.12,0-.23,0-.35,0-.81-.1-1.62-.21-2.44-.3-.6-.07-.86.24-.87,1.02,0,.91,0,1.83,0,2.74Zm4.55-34s.02,0,.04,0c0-.95,0-1.89,0-2.84,0-.31-.06-.6-.26-.78-.16-.14-.34-.27-.53-.33-1.01-.33-2.02-.63-3.03-.94-.35-.11-.58.03-.71.45-.06.19-.08.42-.08.63,0,1.62,0,3.24,0,4.86,0,.35.04.7.1,1.04.06.4.29.62.59.7.32.09.65.18.98.23.68.12,1.36.27,2.01.57.5.23.87-.08.88-.76.02-.95,0-1.89,0-2.84Z"/>
      <path class="cls-2" d="m32.13,91.1c-1.55,0-3.1,0-4.66,0-.3,0-.43.06-.4.4.07.77.03,1.54-.07,2.3-.08.6-.52,1.05-.92,1.48-.05.06-.19.06-.29.05-.69-.06-1.38-.13-2.07-.18-.28-.02-.36-.16-.35-.42,0-1.06-.02-2.12,0-3.18,0-.35-.12-.45-.46-.46-1.19-.03-.95.17-1.16-1.06-.03-.18,0-.31.16-.42.33-.25.65-.52.97-.78.15-.12.34-.17.53-.16,1.73.05,3.45-.01,5.18,0,.15,0,.3.02.45.04.06,0,.17.03.17.05.06.48.22.17.36.05.09-.08.2-.09.32-.09,1.48-.01,2.96-.04,4.44-.05,1.56,0,3.12.02,4.68.02.64,0,1.29-.02,1.93-.04.26,0,.46.06.61.29.17.25.36.48.56.72.07.09.07.19.06.29-.02.24-.06.48-.05.72.01.39-.16.52-.55.51-.62-.01-.62,0-.63.63-.02.98-.05,1.97-.06,2.95,0,.25-.1.37-.35.39-.69.06-1.38.12-2.07.18-.14.01-.28,0-.38-.13-.44-.61-.97-1.16-.88-2.02.05-.51,0-1.03,0-1.55,0-.54,0-.54-.55-.54-1.51,0-3.03,0-4.54,0,0,0,0,0,0,0Z"/>
      <path class="cls-1" d="m104.16,100H0v-1.39q3.99-.19,3.99-4.29c0-10.72.06-21.44-.05-32.16-.02-2.33.66-3.18,3.01-3.04,2.84.17,5.71.15,8.56,0,2.18-.11,2.75.77,2.74,2.84-.08,9.72-.04,19.44-.03,29.16,0,.79-.23,1.66.41,2.43,1.01-.8.62-1.8.62-2.65.03-8.48.07-16.97-.01-25.45-.02-1.98.53-2.69,2.61-2.68,20.13.07,40.26.07,60.39,0,2.23,0,2.7.83,2.68,2.84-.08,8.48-.04,16.97-.03,25.45,0,.81-.18,1.67.37,2.58,1.07-.75.67-1.75.67-2.54.03-9.64.09-19.28-.02-28.92-.03-2.31.63-3.19,3-3.05,2.92.18,5.86.12,8.79.02,1.94-.07,2.51.72,2.5,2.59-.06,10.88-.03,21.75-.03,32.63q0,4.08,4.01,4.27v1.39Zm-81.18-21.07c0-4.32,0-8.64,0-12.96,0-.94.07-1.97-1.34-1.9-1.25.06-1.16,1.03-1.16,1.87-.01,8.64,0,17.27,0,25.91,0,.95-.03,1.96,1.37,1.9,1.27-.06,1.14-1.03,1.14-1.87.01-4.32,0-8.64,0-12.96Zm1.24-.23c0,4.39,0,8.79,0,13.18,0,.84-.12,1.81,1.14,1.87,1.41.07,1.35-.96,1.35-1.9,0-8.64,0-17.27,0-25.91,0-.84.11-1.81-1.15-1.87-1.41-.07-1.34.97-1.34,1.91,0,4.24,0,8.48,0,12.72Zm3.72.26c0,4.24-.01,8.48,0,12.73,0,.88-.25,2,1.18,2.06,1.4.06,1.34-.99,1.34-1.93,0-8.64,0-17.28,0-25.92,0-.85.03-1.8-1.21-1.84-1.42-.04-1.31,1.01-1.32,1.93,0,4.32,0,8.64,0,12.96Zm14.03-.03c0-4.24.01-8.48,0-12.72,0-.95.26-2.2-1.34-2.12-1.41.07-1.16,1.22-1.16,2.09-.02,8.48-.02,16.97,0,25.45,0,.96-.22,2.2,1.36,2.12,1.43-.07,1.14-1.22,1.14-2.09.02-4.24.01-8.48.01-12.72Zm3.74.24c0-4.32.01-8.64,0-12.96,0-.96.25-2.2-1.35-2.13-1.43.06-1.15,1.22-1.15,2.09-.02,8.48-.02,16.97,0,25.45,0,.96-.26,2.2,1.34,2.13,1.42-.06,1.15-1.22,1.15-2.09.03-4.16.01-8.33.01-12.49Zm1.21-.31c0,4.24-.01,8.49.01,12.73,0,.95-.29,2.2,1.31,2.16,1.41-.03,1.21-1.16,1.22-2.05.02-8.49.02-16.97,0-25.46,0-.96.23-2.21-1.34-2.15-1.6.06-1.17,1.37-1.18,2.28-.04,4.17-.02,8.33-.02,12.5Zm11.51.08c0,4.24-.01,8.48.01,12.72,0,.87-.25,2.02,1.17,2.09,1.6.07,1.33-1.17,1.34-2.13.01-8.48.02-16.96,0-25.45,0-.86.29-2.03-1.14-2.09-1.58-.07-1.35,1.17-1.36,2.13-.02,4.24,0,8.48,0,12.72Zm6.25-.17c0-4.24,0-8.48,0-12.72,0-.91.15-2-1.28-1.97-1.43.03-1.2,1.16-1.21,2.04-.02,8.56-.01,17.12,0,25.67,0,.91-.16,2,1.28,1.97,1.43-.03,1.21-1.15,1.21-2.03.02-4.32,0-8.63,0-12.95Zm1.22-.01c0,4.32-.01,8.64,0,12.96,0,.88-.24,2,1.2,2.04,1.41.04,1.33-1.02,1.33-1.95,0-8.56.01-17.13,0-25.69,0-.89.18-2.02-1.23-2.04-1.61-.03-1.28,1.24-1.29,2.18-.03,4.17-.01,8.33-.01,12.5Zm-27.66.11c0-4.24.01-8.47-.01-12.71,0-.87.26-2.03-1.17-2.07-1.56-.05-1.36,1.18-1.36,2.14-.02,8.47-.02,16.95,0,25.42,0,.88-.22,2.04,1.18,2.08,1.54.04,1.35-1.18,1.35-2.16.02-4.24,0-8.47,0-12.71Zm18.98-.17c0-4.16.01-8.32,0-12.48,0-.95.26-2.2-1.33-2.13-1.38.06-1.19,1.2-1.19,2.08-.02,8.47-.02,16.95,0,25.42,0,.95-.23,2.21,1.34,2.14,1.37-.06,1.18-1.2,1.19-2.09.02-4.31,0-8.63,0-12.94Zm23.99,0c0,4.38,0,8.77,0,13.15,0,.97.04,1.98,1.39,1.89,1.26-.08,1.05-1.12,1.06-1.93.01-8.62.01-17.23,0-25.85,0-.83.13-1.82-1.13-1.88-1.42-.07-1.32,1-1.32,1.92,0,4.23,0,8.46,0,12.69Zm-7.57-1.81c0,3.7-.01,7.39.02,11.09,0,.56-.31,1.51.44,1.59.8.09,1.64-.41,1.97-1.29.15-.42.14-.91.14-1.37,0-6.93.01-13.86,0-20.78,0-.88.23-2.02-1.2-2.03-1.55-.01-1.33,1.22-1.34,2.17-.03,3.54-.01,7.08-.01,10.62Zm-3.77,1.76s.01,0,.02,0c0,4.46,0,8.93,0,13.39,0,.78.06,1.65,1.12,1.69,1.08.04,1.19-.8,1.19-1.6,0-8.77,0-17.55,0-26.32,0-.9-.13-1.76-1.33-1.73-1.4.03-1,1.12-1,1.88-.02,4.23-.01,8.46-.01,12.7Zm-35.62.44c0-4.31.02-8.61-.01-12.92,0-.87.21-2.07-1.2-2.03-1.21.03-1.1,1.11-1.1,1.93-.02,8.54-.02,17.07,0,25.61,0,.88-.15,2.09,1.23,2.02,1.36-.07,1.07-1.3,1.08-2.15.03-4.15.01-8.3.01-12.46Zm16.65-.27c0,4.23-.02,8.46.01,12.69,0,.86-.28,2.11,1.06,2.18,1.58.08,1.24-1.29,1.24-2.2.03-8.38.03-16.76,0-25.15,0-.85.31-2.11-1.04-2.18-1.55-.08-1.25,1.28-1.26,2.2-.04,4.15-.02,8.31-.02,12.46Zm29.03-1.9c0-3.77,0-7.53,0-11.3,0-.84-.16-1.55-1.23-1.55-1.06,0-1.27.68-1.27,1.53,0,7.22,0,14.45,0,21.67,0,1,.4,1.62,1.47,1.64,1.24.03,1.03-.9,1.03-1.63.02-3.46,0-6.92,0-10.38Zm-61.04,18.46c-1.07,2.74-.81,3.15,1.8,3.16,16.57.01,33.14,0,49.7,0,.42,0,.85-.04,1.27-.07,0-.1,0-.21,0-.31-.84,0-1.67,0-2.51,0-15.41,0-30.82-.02-46.24.02-2,0-3.96.2-4.03-2.8Z"/>
    </g>
    <text class="cls-4" transform="translate(3.71 23.08)"><tspan x="0" y="0">EJECUTI</tspan><tspan class="cls-3" x="24.79" y="0">V</tspan><tspan x="28.95" y="0">O</tspan><tspan x="13.93" y="10.8">II</tspan></text>
  </g>
</svg>